<mxfile host="Electron" agent="Mozilla/5.0 (Windows NT 10.0; Win64; x64) AppleWebKit/537.36 (KHTML, like Gecko) draw.io/26.2.15 Chrome/134.0.6998.205 Electron/35.2.1 Safari/537.36" version="26.2.15">
  <diagram name="Page-1" id="ipt4Kt7Sx9uQrlR0ACr-">
    <mxGraphModel dx="786" dy="524" grid="1" gridSize="10" guides="1" tooltips="1" connect="1" arrows="1" fold="1" page="1" pageScale="1" pageWidth="850" pageHeight="1100" math="0" shadow="0">
      <root>
        <mxCell id="0" />
        <mxCell id="1" parent="0" />
        <mxCell id="BGMLpLw45mADriLmOVhz-32" style="edgeStyle=orthogonalEdgeStyle;rounded=0;orthogonalLoop=1;jettySize=auto;html=1;entryX=0.5;entryY=0;entryDx=0;entryDy=0;" edge="1" parent="1" source="IkpXYTgl3K8qra5wuV8V-1" target="BGMLpLw45mADriLmOVhz-26">
          <mxGeometry relative="1" as="geometry" />
        </mxCell>
        <mxCell id="IkpXYTgl3K8qra5wuV8V-1" value="Mulai" style="rounded=1;whiteSpace=wrap;html=1;" parent="1" vertex="1">
          <mxGeometry x="250" y="120" width="120" height="30" as="geometry" />
        </mxCell>
        <mxCell id="IkpXYTgl3K8qra5wuV8V-11" style="edgeStyle=orthogonalEdgeStyle;rounded=0;orthogonalLoop=1;jettySize=auto;html=1;entryX=0.5;entryY=0;entryDx=0;entryDy=0;" parent="1" source="IkpXYTgl3K8qra5wuV8V-6" target="IkpXYTgl3K8qra5wuV8V-7" edge="1">
          <mxGeometry relative="1" as="geometry" />
        </mxCell>
        <mxCell id="IkpXYTgl3K8qra5wuV8V-6" value="output(max)" style="shape=parallelogram;perimeter=parallelogramPerimeter;whiteSpace=wrap;html=1;fixedSize=1;" parent="1" vertex="1">
          <mxGeometry x="250" y="355" width="120" height="40" as="geometry" />
        </mxCell>
        <mxCell id="IkpXYTgl3K8qra5wuV8V-7" value="Selesai" style="rounded=1;whiteSpace=wrap;html=1;" parent="1" vertex="1">
          <mxGeometry x="250" y="440" width="120" height="30" as="geometry" />
        </mxCell>
        <mxCell id="BGMLpLw45mADriLmOVhz-33" style="edgeStyle=orthogonalEdgeStyle;rounded=0;orthogonalLoop=1;jettySize=auto;html=1;entryX=0.5;entryY=0;entryDx=0;entryDy=0;" edge="1" parent="1" source="BGMLpLw45mADriLmOVhz-26" target="IkpXYTgl3K8qra5wuV8V-2">
          <mxGeometry relative="1" as="geometry" />
        </mxCell>
        <mxCell id="BGMLpLw45mADriLmOVhz-26" value="T ←&amp;nbsp;[5, 4, 3, 2, 1]" style="rounded=0;whiteSpace=wrap;html=1;" vertex="1" parent="1">
          <mxGeometry x="250" y="200" width="120" height="30" as="geometry" />
        </mxCell>
        <mxCell id="BGMLpLw45mADriLmOVhz-27" value="" style="group" vertex="1" connectable="0" parent="1">
          <mxGeometry x="449" y="120" width="300" height="350" as="geometry" />
        </mxCell>
        <mxCell id="BGMLpLw45mADriLmOVhz-22" value="" style="rounded=0;whiteSpace=wrap;html=1;" vertex="1" parent="BGMLpLw45mADriLmOVhz-27">
          <mxGeometry width="300" height="350" as="geometry" />
        </mxCell>
        <mxCell id="BGMLpLw45mADriLmOVhz-21" style="edgeStyle=orthogonalEdgeStyle;rounded=0;orthogonalLoop=1;jettySize=auto;html=1;exitX=0.5;exitY=1;exitDx=0;exitDy=0;entryX=0.5;entryY=0;entryDx=0;entryDy=0;" edge="1" parent="BGMLpLw45mADriLmOVhz-27" source="IkpXYTgl3K8qra5wuV8V-12" target="BGMLpLw45mADriLmOVhz-1">
          <mxGeometry relative="1" as="geometry" />
        </mxCell>
        <mxCell id="IkpXYTgl3K8qra5wuV8V-12" value="maxArray(T[], N)" style="rounded=1;whiteSpace=wrap;html=1;" parent="BGMLpLw45mADriLmOVhz-27" vertex="1">
          <mxGeometry x="70" y="34.477611940298516" width="120" height="31.52238805970149" as="geometry" />
        </mxCell>
        <mxCell id="IkpXYTgl3K8qra5wuV8V-20" style="edgeStyle=orthogonalEdgeStyle;rounded=0;orthogonalLoop=1;jettySize=auto;html=1;exitX=0.5;exitY=1;exitDx=0;exitDy=0;entryX=0.5;entryY=0;entryDx=0;entryDy=0;" parent="BGMLpLw45mADriLmOVhz-27" source="IkpXYTgl3K8qra5wuV8V-15" target="IkpXYTgl3K8qra5wuV8V-51" edge="1">
          <mxGeometry relative="1" as="geometry">
            <mxPoint x="130" y="204.2089552238806" as="targetPoint" />
          </mxGeometry>
        </mxCell>
        <mxCell id="IkpXYTgl3K8qra5wuV8V-26" value="T" style="edgeLabel;html=1;align=center;verticalAlign=middle;resizable=0;points=[];" parent="IkpXYTgl3K8qra5wuV8V-20" vertex="1" connectable="0">
          <mxGeometry x="-0.209" y="-1" relative="1" as="geometry">
            <mxPoint x="11" y="3" as="offset" />
          </mxGeometry>
        </mxCell>
        <mxCell id="BGMLpLw45mADriLmOVhz-16" style="edgeStyle=orthogonalEdgeStyle;rounded=0;orthogonalLoop=1;jettySize=auto;html=1;entryX=0;entryY=0.5;entryDx=0;entryDy=0;" edge="1" parent="BGMLpLw45mADriLmOVhz-27" source="IkpXYTgl3K8qra5wuV8V-15" target="BGMLpLw45mADriLmOVhz-13">
          <mxGeometry relative="1" as="geometry" />
        </mxCell>
        <mxCell id="BGMLpLw45mADriLmOVhz-24" value="F" style="edgeLabel;html=1;align=center;verticalAlign=middle;resizable=0;points=[];" vertex="1" connectable="0" parent="BGMLpLw45mADriLmOVhz-16">
          <mxGeometry x="0.4581" relative="1" as="geometry">
            <mxPoint x="-13" y="-11" as="offset" />
          </mxGeometry>
        </mxCell>
        <mxCell id="IkpXYTgl3K8qra5wuV8V-15" value="&lt;span style=&quot;font-size: 10px;&quot;&gt;i &amp;lt; N&lt;/span&gt;" style="rhombus;whiteSpace=wrap;html=1;" parent="BGMLpLw45mADriLmOVhz-27" vertex="1">
          <mxGeometry x="105" y="140" width="50" height="47.37" as="geometry" />
        </mxCell>
        <mxCell id="IkpXYTgl3K8qra5wuV8V-29" value="Function maxArray" style="text;html=1;align=center;verticalAlign=middle;resizable=0;points=[];autosize=1;strokeColor=none;fillColor=none;" parent="BGMLpLw45mADriLmOVhz-27" vertex="1">
          <mxGeometry width="120" height="30" as="geometry" />
        </mxCell>
        <mxCell id="BGMLpLw45mADriLmOVhz-5" style="edgeStyle=orthogonalEdgeStyle;rounded=0;orthogonalLoop=1;jettySize=auto;html=1;entryX=0.5;entryY=0;entryDx=0;entryDy=0;" edge="1" parent="BGMLpLw45mADriLmOVhz-27" source="IkpXYTgl3K8qra5wuV8V-51" target="BGMLpLw45mADriLmOVhz-2">
          <mxGeometry relative="1" as="geometry" />
        </mxCell>
        <mxCell id="BGMLpLw45mADriLmOVhz-14" value="T" style="edgeLabel;html=1;align=center;verticalAlign=middle;resizable=0;points=[];" vertex="1" connectable="0" parent="BGMLpLw45mADriLmOVhz-5">
          <mxGeometry x="0.4423" y="-2" relative="1" as="geometry">
            <mxPoint x="12" as="offset" />
          </mxGeometry>
        </mxCell>
        <mxCell id="BGMLpLw45mADriLmOVhz-11" style="edgeStyle=orthogonalEdgeStyle;rounded=0;orthogonalLoop=1;jettySize=auto;html=1;" edge="1" parent="BGMLpLw45mADriLmOVhz-27" source="IkpXYTgl3K8qra5wuV8V-51">
          <mxGeometry relative="1" as="geometry">
            <mxPoint x="40" y="253" as="targetPoint" />
          </mxGeometry>
        </mxCell>
        <mxCell id="BGMLpLw45mADriLmOVhz-15" value="F" style="edgeLabel;html=1;align=center;verticalAlign=middle;resizable=0;points=[];" vertex="1" connectable="0" parent="BGMLpLw45mADriLmOVhz-11">
          <mxGeometry x="-0.1014" y="-3" relative="1" as="geometry">
            <mxPoint y="-10" as="offset" />
          </mxGeometry>
        </mxCell>
        <mxCell id="IkpXYTgl3K8qra5wuV8V-51" value="&lt;span style=&quot;font-size: 10px;&quot;&gt;T[i]&amp;nbsp;≥ max&lt;/span&gt;" style="rhombus;whiteSpace=wrap;html=1;" parent="BGMLpLw45mADriLmOVhz-27" vertex="1">
          <mxGeometry x="95" y="218" width="70" height="70" as="geometry" />
        </mxCell>
        <mxCell id="BGMLpLw45mADriLmOVhz-20" style="edgeStyle=orthogonalEdgeStyle;rounded=0;orthogonalLoop=1;jettySize=auto;html=1;exitX=0.5;exitY=1;exitDx=0;exitDy=0;entryX=0.5;entryY=0;entryDx=0;entryDy=0;" edge="1" parent="BGMLpLw45mADriLmOVhz-27" source="BGMLpLw45mADriLmOVhz-1" target="IkpXYTgl3K8qra5wuV8V-15">
          <mxGeometry relative="1" as="geometry" />
        </mxCell>
        <mxCell id="BGMLpLw45mADriLmOVhz-1" value="&lt;div&gt;max&amp;nbsp;← T[0]&lt;/div&gt;i&amp;nbsp;← 1" style="rounded=0;whiteSpace=wrap;html=1;" vertex="1" parent="BGMLpLw45mADriLmOVhz-27">
          <mxGeometry x="84" y="80" width="92.5" height="32" as="geometry" />
        </mxCell>
        <mxCell id="BGMLpLw45mADriLmOVhz-12" style="edgeStyle=orthogonalEdgeStyle;rounded=0;orthogonalLoop=1;jettySize=auto;html=1;entryX=0.5;entryY=1;entryDx=0;entryDy=0;" edge="1" parent="BGMLpLw45mADriLmOVhz-27" source="BGMLpLw45mADriLmOVhz-2" target="BGMLpLw45mADriLmOVhz-3">
          <mxGeometry relative="1" as="geometry" />
        </mxCell>
        <mxCell id="BGMLpLw45mADriLmOVhz-2" value="max ← T[i]" style="rounded=0;whiteSpace=wrap;html=1;" vertex="1" parent="BGMLpLw45mADriLmOVhz-27">
          <mxGeometry x="85" y="310" width="90" height="30" as="geometry" />
        </mxCell>
        <mxCell id="BGMLpLw45mADriLmOVhz-10" style="edgeStyle=orthogonalEdgeStyle;rounded=0;orthogonalLoop=1;jettySize=auto;html=1;entryX=0;entryY=0.5;entryDx=0;entryDy=0;" edge="1" parent="BGMLpLw45mADriLmOVhz-27" source="BGMLpLw45mADriLmOVhz-3" target="IkpXYTgl3K8qra5wuV8V-15">
          <mxGeometry relative="1" as="geometry" />
        </mxCell>
        <mxCell id="BGMLpLw45mADriLmOVhz-3" value="i&amp;nbsp;← i + 1" style="rounded=0;whiteSpace=wrap;html=1;" vertex="1" parent="BGMLpLw45mADriLmOVhz-27">
          <mxGeometry x="10" y="150" width="60" height="28.68" as="geometry" />
        </mxCell>
        <mxCell id="BGMLpLw45mADriLmOVhz-13" value="return (max)" style="rounded=1;whiteSpace=wrap;html=1;" vertex="1" parent="BGMLpLw45mADriLmOVhz-27">
          <mxGeometry x="200" y="149.68" width="90" height="28" as="geometry" />
        </mxCell>
        <mxCell id="BGMLpLw45mADriLmOVhz-25" value="" style="rounded=0;whiteSpace=wrap;html=1;fillColor=#008a00;fontColor=#ffffff;strokeColor=#005700;opacity=30;" vertex="1" parent="BGMLpLw45mADriLmOVhz-27">
          <mxGeometry x="6" y="124.68" width="175" height="220.32" as="geometry" />
        </mxCell>
        <mxCell id="BGMLpLw45mADriLmOVhz-31" value="" style="group" vertex="1" connectable="0" parent="1">
          <mxGeometry x="185" y="270" width="250" height="50" as="geometry" />
        </mxCell>
        <mxCell id="IkpXYTgl3K8qra5wuV8V-2" value="max&amp;nbsp;←&amp;nbsp; &amp;nbsp; &amp;nbsp; &amp;nbsp; &amp;nbsp; &amp;nbsp; &amp;nbsp; &amp;nbsp; &amp;nbsp; &amp;nbsp; &amp;nbsp; &amp;nbsp; &amp;nbsp; &amp;nbsp; &amp;nbsp; &amp;nbsp; &amp;nbsp; &amp;nbsp; &amp;nbsp; &amp;nbsp; &amp;nbsp; &amp;nbsp; &amp;nbsp; &amp;nbsp; &amp;nbsp; &amp;nbsp; &amp;nbsp; &amp;nbsp; &amp;nbsp;" style="rounded=0;whiteSpace=wrap;html=1;" parent="BGMLpLw45mADriLmOVhz-31" vertex="1">
          <mxGeometry width="250.00000000000003" height="50" as="geometry" />
        </mxCell>
        <mxCell id="BGMLpLw45mADriLmOVhz-28" value="&lt;font style=&quot;font-size: 10px;&quot;&gt;maxArray(T,&amp;nbsp; &amp;nbsp; &amp;nbsp; &amp;nbsp; &amp;nbsp; &amp;nbsp; &amp;nbsp; &amp;nbsp; &amp;nbsp; &amp;nbsp; &amp;nbsp; &amp;nbsp; &amp;nbsp; &amp;nbsp; &amp;nbsp;)&lt;/font&gt;" style="shape=process;whiteSpace=wrap;html=1;backgroundOutline=1;" vertex="1" parent="BGMLpLw45mADriLmOVhz-31">
          <mxGeometry x="52" y="4.3700000000000045" width="186.54" height="40" as="geometry" />
        </mxCell>
        <mxCell id="BGMLpLw45mADriLmOVhz-29" value="&lt;font style=&quot;font-size: 10px;&quot;&gt;len(T)&lt;/font&gt;" style="shape=process;whiteSpace=wrap;html=1;backgroundOutline=1;" vertex="1" parent="BGMLpLw45mADriLmOVhz-31">
          <mxGeometry x="135.32469316888046" y="16.370000000000005" width="72.95825996204933" height="18" as="geometry" />
        </mxCell>
        <mxCell id="BGMLpLw45mADriLmOVhz-35" style="edgeStyle=orthogonalEdgeStyle;rounded=0;orthogonalLoop=1;jettySize=auto;html=1;exitX=0.5;exitY=1;exitDx=0;exitDy=0;entryX=0.5;entryY=0;entryDx=0;entryDy=0;" edge="1" parent="1" source="IkpXYTgl3K8qra5wuV8V-2" target="IkpXYTgl3K8qra5wuV8V-6">
          <mxGeometry relative="1" as="geometry" />
        </mxCell>
      </root>
    </mxGraphModel>
  </diagram>
</mxfile>
